# xmcd
#
# Track frame offsets:
#	182
#	13805
#	35202
#	56680
#	67012
#	81292
#	95560
#	111447
#	123817
#	143100
#	149725
#	160957
#	174265
#	191125
#	208537
#	224487
#	238655
#	255540
#	270987
#	285862
#	305720
#	318982
#
# Disc length: 4456 seconds
# Revision: 0
# Processed by: cddbd v1.5.2PL0 Copyright (c) Steve Scherf et al.
# Submitted via: dBpowerAMP V12.0
#
DISCID=52116616
DTITLE=John Denver - The very best of John Denver
DYEAR=2000
DGENRE=Country
TTITLE0=Annie's song
TTITLE1=Rocky Mountain high
TTITLE2=Back home again
TTITLE3=Grandma's feather bed
TTITLE4=Polka dots and moonbeams
TTITLE5=Take me home, country roads
TTITLE6=I'm sorry
TTITLE7=Late night radio
TTITLE8=Don't close your eyes tonight
TTITLE9=The music is you
TTITLE10=It's up to you
TTITLE11=For Baby (For Bobbie)
TTITLE12=Gimme your love
TTITLE13=Got my heart set on you
TTITLE14=Love is everywhere
TTITLE15=Cool an' green an' shady
TTITLE16=Matthew
TTITLE17=I'm in the mood to be desired tonight
TTITLE18=City of New Orleans
TTITLE19=I'd rather be a cowboy (Lady's chains)
TTITLE20=Please, Daddy (don't get drunk this Christmas)
TTITLE21=Friends with you
EXTD=
EXTT0=
EXTT1=
EXTT2=
EXTT3=
EXTT4=
EXTT5=
EXTT6=
EXTT7=
EXTT8=
EXTT9=
EXTT10=
EXTT11=
EXTT12=
EXTT13=
EXTT14=
EXTT15=
EXTT16=
EXTT17=
EXTT18=
EXTT19=
EXTT20=
EXTT21=
PLAYORDER=
